<mxfile host="app.diagrams.net" modified="2023-07-23T19:15:47.888Z" agent="Mozilla/5.0 (Macintosh; Intel Mac OS X 10_15_7) AppleWebKit/605.1.15 (KHTML, like Gecko) Version/16.5.2 Safari/605.1.15" etag="LClaMyJCwD4Jm6gaZAef" version="21.6.5" type="github">
  <diagram name="PÃ¡gina-1" id="RV3uaWwgxY9gexgOD0gL">
    <mxGraphModel dx="1099" dy="1162" grid="1" gridSize="10" guides="1" tooltips="1" connect="1" arrows="1" fold="1" page="1" pageScale="1" pageWidth="827" pageHeight="1169" math="0" shadow="0">
      <root>
        <mxCell id="0" />
        <mxCell id="1" parent="0" />
        <mxCell id="OnU-YwyqA6t2gNk62qNB-1" value="inicio" style="rounded=1;whiteSpace=wrap;html=1;" vertex="1" parent="1">
          <mxGeometry x="240" y="100" width="120" height="60" as="geometry" />
        </mxCell>
        <mxCell id="OnU-YwyqA6t2gNk62qNB-2" value="" style="endArrow=classic;html=1;rounded=0;" edge="1" parent="1" source="OnU-YwyqA6t2gNk62qNB-1">
          <mxGeometry width="50" height="50" relative="1" as="geometry">
            <mxPoint x="390" y="580" as="sourcePoint" />
            <mxPoint x="300" y="230" as="targetPoint" />
          </mxGeometry>
        </mxCell>
        <mxCell id="OnU-YwyqA6t2gNk62qNB-4" value="Saludo" style="rounded=0;whiteSpace=wrap;html=1;" vertex="1" parent="1">
          <mxGeometry x="240" y="240" width="120" height="60" as="geometry" />
        </mxCell>
      </root>
    </mxGraphModel>
  </diagram>
</mxfile>
